HIERARCHY
ROOT Hips
{
	OFFSET -0.001795 -0.223333 0.028219
	CHANNELS 6 Xposition Yposition Zposition Zrotation Yrotation Xrotation 
	JOINT LeftUpLeg
	{
		OFFSET 0.069520 -0.091406 -0.006815
		CHANNELS 3 Zrotation Yrotation Xrotation
		JOINT LeftLeg
		{
			OFFSET 0.034277 -0.375199 -0.004496
			CHANNELS 3 Zrotation Yrotation Xrotation
			JOINT LeftFoot
			{
				OFFSET -0.013596 -0.397961 -0.043693
				CHANNELS 3 Zrotation Yrotation Xrotation
				JOINT LeftToe
				{
					OFFSET 0.026358 -0.055791 0.119288
					CHANNELS 3 Zrotation Yrotation Xrotation
					End Site
					{
						OFFSET 0.000000 0.000000 0.000000
					}
				}
			}
		}
	}
	JOINT RightUpLeg
	{
		OFFSET -0.067670 -0.090522 -0.004320
		CHANNELS 3 Zrotation Yrotation Xrotation
		JOINT RightLeg
		{
			OFFSET -0.038290 -0.382569 -0.008850
			CHANNELS 3 Zrotation Yrotation Xrotation
			JOINT RightFoot
			{
				OFFSET 0.015774 -0.398415 -0.042312
				CHANNELS 3 Zrotation Yrotation Xrotation
				JOINT RightToe
				{
					OFFSET -0.025372 -0.048144 0.123348
					CHANNELS 3 Zrotation Yrotation Xrotation
					End Site
					{
						OFFSET 0.000000 0.000000 0.000000
					}
				}
			}
		}
	}
	JOINT Spine
	{
		OFFSET -0.002533 0.108963 -0.026696
		CHANNELS 3 Zrotation Yrotation Xrotation
		JOINT Spine1
		{
			OFFSET 0.005487 0.135180 0.001092
			CHANNELS 3 Zrotation Yrotation Xrotation
			JOINT Spine2
			{
				OFFSET 0.001457 0.052922 0.025425
				CHANNELS 3 Zrotation Yrotation Xrotation
				JOINT Neck
				{
					OFFSET -0.002778 0.213870 -0.042857
					CHANNELS 3 Zrotation Yrotation Xrotation
					JOINT Head
					{
						OFFSET 0.005152 0.064970 0.051349
						CHANNELS 3 Zrotation Yrotation Xrotation
						End Site
						{
							OFFSET 0.000000 0.000000 0.000000
						}
					}
				}
				JOINT LeftShoulder
				{
					OFFSET 0.078845 0.121749 -0.034090
					CHANNELS 3 Zrotation Yrotation Xrotation
					JOINT LeftArm
					{
						OFFSET 0.090977 0.030469 -0.008868
						CHANNELS 3 Zrotation Yrotation Xrotation
						JOINT LeftForeArm
						{
							OFFSET 0.259612 -0.012772 -0.027456
							CHANNELS 3 Zrotation Yrotation Xrotation
							JOINT LeftHand
							{
								OFFSET 0.249234 0.008986 -0.001171
								CHANNELS 3 Zrotation Yrotation Xrotation
								End Site
								{
									OFFSET 0.000000 0.000000 0.000000
								}
							}
						}
					}
				}
				JOINT RightShoulder
				{
					OFFSET -0.081759 0.118833 -0.038615
					CHANNELS 3 Zrotation Yrotation Xrotation
					JOINT RightArm
					{
						OFFSET -0.096012 0.032551 -0.009143
						CHANNELS 3 Zrotation Yrotation Xrotation
						JOINT RightForeArm
						{
							OFFSET -0.253742 -0.013329 -0.021401
							CHANNELS 3 Zrotation Yrotation Xrotation
							JOINT RightHand
							{
								OFFSET -0.255298 0.007772 -0.005559
								CHANNELS 3 Zrotation Yrotation Xrotation
								End Site
								{
									OFFSET 0.000000 0.000000 0.000000
								}
							}
						}
					}
				}
			}
		}
	}
}
MOTION
Frames: 5
Frame Time: 0.050000
0.000000 0.810301 0.000000 -3.506209 -1.011555 2.664924 6.602819 -1.250842 -38.460733 -7.413142 3.012822 53.695245 11.099112 23.370046 -12.852216 0.000000 0.000000 0.000000 -2.432563 3.655812 -41.811620 6.417457 -1.650607 60.534872 -5.920546 -11.739745 -14.582297 0.000000 0.000000 0.000000 -5.772095 0.506983 35.641495 7.214651 -0.917569 -26.387821 0.883758 4.342625 25.900551 2.514747 0.840057 -27.201044 0.000000 0.000000 0.000000 -26.070863 -8.007555 2.075270 -38.088516 -13.211840 -2.244482 -5.958837 -28.611612 2.623135 0.000000 0.000000 0.000000 19.629534 11.682088 6.451251 46.408159 14.588729 -1.598523 -2.426381 31.682559 0.921694 0.000000 0.000000 0.000000 
-0.012088 0.752129 -0.009190 -3.602444 -0.577387 1.484544 9.851979 -0.244422 -47.651811 -10.694924 6.464795 68.982813 11.636009 24.609585 -12.602578 0.000000 0.000000 0.000000 -2.474780 4.307749 -49.752281 7.520747 -3.207539 73.996254 -6.626265 -13.749401 -17.361234 0.000000 0.000000 0.000000 -6.089275 0.627868 41.303180 7.715182 -1.014089 -26.643426 1.309439 5.129325 25.411186 1.774951 1.685444 -30.727345 0.000000 0.000000 0.000000 -27.269192 -8.936199 2.171335 -37.128792 -15.950884 -1.236659 -1.753613 -28.962645 1.549859 0.000000 0.000000 0.000000 18.521187 14.275825 7.994643 47.047941 15.784907 -1.086815 -7.750844 33.808571 -0.365867 0.000000 0.000000 0.000000 
-0.023218 0.692819 -0.017667 -3.327496 1.772440 -0.917573 10.196447 -0.835679 -54.709397 -11.294486 7.523489 82.717286 11.480695 24.408464 -14.149649 0.000000 0.000000 0.000000 -3.919644 3.463067 -56.073944 10.363550 -8.255508 85.612092 -8.642700 -21.601244 -17.041900 0.000000 0.000000 0.000000 -5.622903 -0.019167 46.157734 8.333285 -1.265562 -25.455091 1.450134 4.025341 24.758773 0.040633 2.611333 -31.339415 0.000000 0.000000 0.000000 -27.761144 -12.436841 4.401533 -35.442966 -15.746788 -1.248546 2.276418 -29.449816 0.498249 0.000000 0.000000 0.000000 19.759446 16.976624 9.579382 42.757984 17.561424 -0.612384 -12.211753 31.922584 -1.654862 0.000000 0.000000 0.000000 
-0.032410 0.633749 -0.024374 -3.438274 0.763844 -1.632725 10.434384 -0.473017 -60.299952 -9.903374 7.572525 91.999952 12.702529 28.756864 -19.177586 0.000000 0.000000 0.000000 -3.488141 4.488462 -62.395686 10.805523 -9.809181 96.174415 -8.668281 -22.119672 -22.261229 0.000000 0.000000 0.000000 -5.826446 0.278715 51.640786 8.771988 -1.173517 -27.706546 1.762718 4.490618 24.928261 -2.638498 4.048356 -32.769946 0.000000 0.000000 0.000000 -28.600935 -12.660702 4.575420 -32.207195 -14.950611 -1.447428 1.329943 -29.549407 0.698694 0.000000 0.000000 0.000000 20.367320 19.319725 10.957679 37.503341 17.831804 -0.770126 -13.405106 32.806319 -2.184803 0.000000 0.000000 0.000000 
-0.039591 0.575168 -0.029185 -3.287167 -0.388803 -2.754621 12.480010 1.276728 -66.935329 -10.457911 10.509104 102.263613 13.127778 29.750930 -18.081248 0.000000 0.000000 0.000000 -3.729777 5.432411 -69.231380 13.311048 -14.748577 104.528048 -10.469627 -30.482417 -21.843737 0.000000 0.000000 0.000000 -5.484077 0.450982 57.505719 7.104067 -0.897027 -27.321773 2.400165 5.662790 23.436215 -2.695082 4.183482 -32.126081 0.000000 0.000000 0.000000 -28.466392 -16.241916 6.498161 -30.045376 -15.026625 -1.156302 4.366448 -29.240206 -0.162135 0.000000 0.000000 0.000000 19.841773 20.285417 11.442571 34.356973 18.743117 -0.468200 -16.085882 32.060094 -2.907135 0.000000 0.000000 0.000000 
